<svg xmlns="http://www.w3.org/2000/svg" xmlns:xlink="http://www.w3.org/1999/xlink" width="1024" zoomAndPan="magnify" viewBox="0 0 768 767.999994" height="1024" preserveAspectRatio="xMidYMid meet" version="1.0"><defs><g/><clipPath id="a5af772444"><path d="M 0 0 L 768 0 L 768 384 L 0 384 Z M 0 0 " clip-rule="nonzero"/></clipPath><clipPath id="4f17c63d1f"><rect x="0" width="768" y="0" height="384"/></clipPath><clipPath id="c8bca82e4d"><path d="M 816.5 -40.765625 L 873.25 26.0625 L -48.507812 808.769531 L -105.253906 741.941406 Z M 816.5 -40.765625 " clip-rule="nonzero"/></clipPath><clipPath id="e76d951536"><path d="M 0 0 L 768 0 L 768 768 L 0 768 Z M 0 0 " clip-rule="nonzero"/></clipPath><clipPath id="4960439364"><path d="M 816.5 -40.765625 L 873.25 26.0625 L -48.507812 808.769531 L -105.253906 741.941406 Z M 816.5 -40.765625 " clip-rule="nonzero"/></clipPath><clipPath id="3fe5638a79"><rect x="0" width="768" y="0" height="768"/></clipPath></defs><rect x="-76.8" width="921.6" fill="#ffffff" y="-76.799999" height="921.599993" fill-opacity="1"/><rect x="-76.8" width="921.6" fill="#ff751f" y="-76.799999" height="921.599993" fill-opacity="1"/><g transform="matrix(1, 0, 0, 1, 0, -0.000000000000057351)"><g clip-path="url(#4f17c63d1f)"><g clip-path="url(#a5af772444)"><rect x="-168.96" width="1105.92" fill="#38b6ff" height="1105.919991" y="-168.959999" fill-opacity="1"/></g></g></g><path stroke-linecap="butt" transform="matrix(0.75, 0, 0, 0.75, 0.000003, 372.750002)" fill="none" stroke-linejoin="miter" d="M -0.000004 14.999999 L 1024.000047 14.999999 " stroke="#ffffff" stroke-width="30" stroke-opacity="1" stroke-miterlimit="4"/><path stroke-linecap="butt" transform="matrix(0.75, -0.000000000000000093, 0.000000000000000093, 0.75, 197.757152, 291.99027)" fill="none" stroke-linejoin="miter" d="M 0.00088118 10.002558 L 496.646739 10.002558 " stroke="#ffffff" stroke-width="20" stroke-opacity="1" stroke-miterlimit="4"/><path stroke-linecap="butt" transform="matrix(0.75, 0.000000000000000214, -0.000000000000000214, 0.75, 234.444133, 210.990274)" fill="none" stroke-linejoin="miter" d="M 0.00157267 10.002552 L 398.814092 10.002552 " stroke="#ffffff" stroke-width="20" stroke-opacity="1" stroke-miterlimit="4"/><path stroke-linecap="butt" transform="matrix(0.75, -0.000000000000000093, 0.000000000000000093, 0.75, 197.757152, 129.990278)" fill="none" stroke-linejoin="miter" d="M 0.00088118 10.002547 L 496.646739 10.002547 " stroke="#ffffff" stroke-width="20" stroke-opacity="1" stroke-miterlimit="4"/><path stroke-linecap="butt" transform="matrix(0.75, 0.000000000000000214, -0.000000000000000214, 0.75, 234.444133, 48.990282)" fill="none" stroke-linejoin="miter" d="M 0.00157267 10.002542 L 398.814092 10.002542 " stroke="#ffffff" stroke-width="20" stroke-opacity="1" stroke-miterlimit="4"/><path stroke-linecap="butt" transform="matrix(-0.75, 0, 0, -0.75, 570.237575, 476.249996)" fill="none" stroke-linejoin="miter" d="M -0.000941953 9.999996 L 496.650124 9.999996 " stroke="#ffffff" stroke-width="20" stroke-opacity="1" stroke-miterlimit="4"/><path stroke-linecap="butt" transform="matrix(-0.75, 0, 0, -0.75, 533.553481, 557.249992)" fill="none" stroke-linejoin="miter" d="M -0.0016092 9.99999 L 398.816119 9.99999 " stroke="#ffffff" stroke-width="20" stroke-opacity="1" stroke-miterlimit="4"/><path stroke-linecap="butt" transform="matrix(-0.75, 0, 0, -0.75, 570.237575, 638.249988)" fill="none" stroke-linejoin="miter" d="M -0.000941953 9.999985 L 496.650124 9.999985 " stroke="#ffffff" stroke-width="20" stroke-opacity="1" stroke-miterlimit="4"/><path stroke-linecap="butt" transform="matrix(-0.75, 0, 0, -0.75, 533.553481, 719.249984)" fill="none" stroke-linejoin="miter" d="M -0.0016092 9.99998 L 398.816119 9.99998 " stroke="#ffffff" stroke-width="20" stroke-opacity="1" stroke-miterlimit="4"/><g clip-path="url(#c8bca82e4d)"><g transform="matrix(1, 0, 0, 1, 0, -0.000000000000057351)"><g clip-path="url(#3fe5638a79)"><g clip-path="url(#e76d951536)"><g clip-path="url(#4960439364)"><path fill="#545454" d="M 816.5 -40.765625 L 873.25 26.0625 L -48.542969 808.800781 L -105.292969 741.972656 Z M 816.5 -40.765625 " fill-opacity="1" fill-rule="nonzero"/></g></g></g></g></g><g fill="#ffffff" fill-opacity="1"><g transform="translate(0.000003, 704.699337)"><g><path d="M 1.796875 -15 C 1.796875 -19.582031 2.679688 -23.191406 4.453125 -25.828125 C 6.234375 -28.472656 9.097656 -29.796875 13.046875 -29.796875 C 16.984375 -29.796875 19.835938 -28.472656 21.609375 -25.828125 C 23.390625 -23.191406 24.28125 -19.582031 24.28125 -15 C 24.28125 -10.363281 23.390625 -6.722656 21.609375 -4.078125 C 19.835938 -1.441406 16.984375 -0.125 13.046875 -0.125 C 9.097656 -0.125 6.234375 -1.441406 4.453125 -4.078125 C 2.679688 -6.722656 1.796875 -10.363281 1.796875 -15 Z M 17.5625 -15 C 17.5625 -17.695312 17.265625 -19.769531 16.671875 -21.21875 C 16.085938 -22.675781 14.878906 -23.40625 13.046875 -23.40625 C 11.203125 -23.40625 9.984375 -22.675781 9.390625 -21.21875 C 8.804688 -19.769531 8.515625 -17.695312 8.515625 -15 C 8.515625 -13.1875 8.617188 -11.6875 8.828125 -10.5 C 9.046875 -9.3125 9.484375 -8.347656 10.140625 -7.609375 C 10.796875 -6.878906 11.765625 -6.515625 13.046875 -6.515625 C 14.316406 -6.515625 15.28125 -6.878906 15.9375 -7.609375 C 16.59375 -8.347656 17.023438 -9.3125 17.234375 -10.5 C 17.453125 -11.6875 17.5625 -13.1875 17.5625 -15 Z M 17.5625 -15 "/></g></g></g><g fill="#ffffff" fill-opacity="1"><g transform="translate(26.077413, 704.699337)"><g><path d="M 22.359375 -23.234375 L 9.875 -23.234375 L 9.875 -17.71875 C 10.414062 -18.300781 11.164062 -18.78125 12.125 -19.15625 C 13.082031 -19.53125 14.117188 -19.71875 15.234375 -19.71875 C 17.234375 -19.71875 18.894531 -19.265625 20.21875 -18.359375 C 21.539062 -17.453125 22.507812 -16.28125 23.125 -14.84375 C 23.738281 -13.40625 24.046875 -11.84375 24.046875 -10.15625 C 24.046875 -7.039062 23.164062 -4.566406 21.40625 -2.734375 C 19.644531 -0.910156 17.160156 0 13.953125 0 C 11.828125 0 9.976562 -0.363281 8.40625 -1.09375 C 6.832031 -1.832031 5.617188 -2.851562 4.765625 -4.15625 C 3.910156 -5.46875 3.441406 -6.976562 3.359375 -8.6875 L 10.046875 -8.6875 C 10.203125 -7.851562 10.585938 -7.160156 11.203125 -6.609375 C 11.816406 -6.066406 12.65625 -5.796875 13.71875 -5.796875 C 14.96875 -5.796875 15.898438 -6.195312 16.515625 -7 C 17.128906 -7.800781 17.4375 -8.867188 17.4375 -10.203125 C 17.4375 -11.503906 17.113281 -12.5 16.46875 -13.1875 C 15.832031 -13.882812 14.90625 -14.234375 13.6875 -14.234375 C 12.769531 -14.234375 12.019531 -14.015625 11.4375 -13.578125 C 10.851562 -13.140625 10.46875 -12.5625 10.28125 -11.84375 L 3.6875 -11.84375 L 3.6875 -29.234375 L 22.359375 -29.234375 Z M 22.359375 -23.234375 "/></g></g></g><g fill="#ffffff" fill-opacity="1"><g transform="translate(718.442655, 90.299363)"><g><path d="M 1.5625 -5.484375 C 2.46875 -6.203125 2.878906 -6.535156 2.796875 -6.484375 C 5.410156 -8.640625 7.46875 -10.410156 8.96875 -11.796875 C 10.476562 -13.179688 11.753906 -14.632812 12.796875 -16.15625 C 13.835938 -17.675781 14.359375 -19.15625 14.359375 -20.59375 C 14.359375 -21.6875 14.101562 -22.539062 13.59375 -23.15625 C 13.09375 -23.769531 12.332031 -24.078125 11.3125 -24.078125 C 10.300781 -24.078125 9.507812 -23.695312 8.9375 -22.9375 C 8.363281 -22.175781 8.078125 -21.101562 8.078125 -19.71875 L 1.484375 -19.71875 C 1.535156 -21.988281 2.019531 -23.882812 2.9375 -25.40625 C 3.851562 -26.925781 5.066406 -28.046875 6.578125 -28.765625 C 8.085938 -29.484375 9.757812 -29.84375 11.59375 -29.84375 C 14.769531 -29.84375 17.164062 -29.023438 18.78125 -27.390625 C 20.394531 -25.765625 21.203125 -23.648438 21.203125 -21.046875 C 21.203125 -18.191406 20.226562 -15.539062 18.28125 -13.09375 C 16.332031 -10.65625 13.851562 -8.273438 10.84375 -5.953125 L 21.640625 -5.953125 L 21.640625 -0.40625 L 1.5625 -0.40625 Z M 1.5625 -5.484375 "/></g></g></g><g fill="#ffffff" fill-opacity="1"><g transform="translate(741.280381, 90.299363)"><g><path d="M 2.046875 -20.953125 C 2.148438 -23.804688 3.082031 -26.003906 4.84375 -27.546875 C 6.601562 -29.097656 8.988281 -29.875 12 -29.875 C 14 -29.875 15.710938 -29.523438 17.140625 -28.828125 C 18.566406 -28.140625 19.644531 -27.195312 20.375 -26 C 21.113281 -24.800781 21.484375 -23.453125 21.484375 -21.953125 C 21.484375 -20.191406 21.039062 -18.757812 20.15625 -17.65625 C 19.28125 -16.550781 18.253906 -15.800781 17.078125 -15.40625 L 17.078125 -15.234375 C 18.597656 -14.734375 19.796875 -13.894531 20.671875 -12.71875 C 21.554688 -11.539062 22 -10.035156 22 -8.203125 C 22 -6.546875 21.617188 -5.082031 20.859375 -3.8125 C 20.097656 -2.550781 18.988281 -1.5625 17.53125 -0.84375 C 16.082031 -0.125 14.359375 0.234375 12.359375 0.234375 C 9.160156 0.234375 6.609375 -0.550781 4.703125 -2.125 C 2.796875 -3.695312 1.789062 -6.066406 1.6875 -9.234375 L 8.3125 -9.234375 C 8.34375 -8.066406 8.675781 -7.140625 9.3125 -6.453125 C 9.957031 -5.773438 10.894531 -5.4375 12.125 -5.4375 C 13.164062 -5.4375 13.972656 -5.734375 14.546875 -6.328125 C 15.117188 -6.929688 15.40625 -7.726562 15.40625 -8.71875 C 15.40625 -10 14.992188 -10.925781 14.171875 -11.5 C 13.359375 -12.070312 12.0625 -12.359375 10.28125 -12.359375 L 9 -12.359375 L 9 -17.921875 L 10.28125 -17.921875 C 11.632812 -17.921875 12.734375 -18.148438 13.578125 -18.609375 C 14.421875 -19.078125 14.84375 -19.914062 14.84375 -21.125 C 14.84375 -22.082031 14.570312 -22.828125 14.03125 -23.359375 C 13.5 -23.890625 12.769531 -24.15625 11.84375 -24.15625 C 10.820312 -24.15625 10.066406 -23.847656 9.578125 -23.234375 C 9.085938 -22.617188 8.800781 -21.859375 8.71875 -20.953125 Z M 2.046875 -20.953125 "/></g></g></g><g fill="#ff3131" fill-opacity="1"><g transform="translate(66.082526, 555.928887)"><g><path d="M 19.171875 -27.375 L 6.328125 -16.1875 L 9.5625 -8.3125 L 0.796875 -0.6875 L -16.71875 -45.9375 L -7 -54.390625 L 35.40625 -30.8125 L 26.53125 -23.09375 Z M 11.390625 -31.96875 L -3.84375 -40.859375 L 2.90625 -24.578125 Z M 11.390625 -31.96875 "/></g></g></g><g fill="#ff3131" fill-opacity="1"><g transform="translate(102.216965, 524.486174)"><g><path d="M -18.53125 -44.359375 L 11.421875 -9.9375 L 3.046875 -2.640625 L -26.90625 -37.0625 Z M -18.53125 -44.359375 "/></g></g></g><g fill="#ff3131" fill-opacity="1"><g transform="translate(116.680543, 511.90056)"><g><path d="M 20.59375 -17.921875 L 2.140625 -24.671875 L 0.125 -22.921875 L 11.421875 -9.9375 L 3.046875 -2.640625 L -26.90625 -37.0625 L -12.84375 -49.3125 C -10.125 -51.675781 -7.394531 -53.210938 -4.65625 -53.921875 C -1.925781 -54.640625 0.628906 -54.582031 3.015625 -53.75 C 5.398438 -52.925781 7.472656 -51.503906 9.234375 -49.484375 C 11.222656 -47.191406 12.351562 -44.582031 12.625 -41.65625 C 12.90625 -38.738281 12.113281 -35.804688 10.25 -32.859375 L 30.0625 -26.15625 Z M -5.046875 -28.875 L 0.15625 -33.40625 C 1.695312 -34.738281 2.519531 -36.113281 2.625 -37.53125 C 2.738281 -38.945312 2.203125 -40.34375 1.015625 -41.71875 C -0.117188 -43.019531 -1.394531 -43.710938 -2.8125 -43.796875 C -4.238281 -43.890625 -5.722656 -43.269531 -7.265625 -41.9375 L -12.46875 -37.40625 Z M -5.046875 -28.875 "/></g></g></g><g fill="#ff3131" fill-opacity="1"><g transform="translate(148.647505, 484.084217)"><g><path d="M 8.96875 -48.828125 C 10.707031 -46.828125 11.835938 -44.601562 12.359375 -42.15625 C 12.878906 -39.707031 12.628906 -37.148438 11.609375 -34.484375 C 10.597656 -31.828125 8.6875 -29.273438 5.875 -26.828125 L 0.671875 -22.296875 L 11.421875 -9.9375 L 3.046875 -2.640625 L -26.90625 -37.0625 L -13.328125 -48.890625 C -10.578125 -51.273438 -7.84375 -52.816406 -5.125 -53.515625 C -2.414062 -54.222656 0.140625 -54.15625 2.546875 -53.3125 C 4.953125 -52.476562 7.09375 -50.984375 8.96875 -48.828125 Z M -0.5625 -32.9375 C 1.039062 -34.332031 1.90625 -35.742188 2.03125 -37.171875 C 2.164062 -38.609375 1.632812 -40.015625 0.4375 -41.390625 C -0.757812 -42.765625 -2.078125 -43.484375 -3.515625 -43.546875 C -4.953125 -43.617188 -6.472656 -42.957031 -8.078125 -41.5625 L -12.640625 -37.59375 L -5.125 -28.96875 Z M -0.5625 -32.9375 "/></g></g></g><g fill="#ff3131" fill-opacity="1"><g transform="translate(179.241651, 457.46244)"><g><path d="M 19.609375 -16.46875 C 16.378906 -13.644531 12.757812 -11.8125 8.75 -10.96875 C 4.75 -10.132812 0.78125 -10.375 -3.15625 -11.6875 C -7.09375 -13.007812 -10.523438 -15.347656 -13.453125 -18.703125 C -16.378906 -22.078125 -18.210938 -25.796875 -18.953125 -29.859375 C -19.703125 -33.921875 -19.378906 -37.875 -17.984375 -41.71875 C -16.597656 -45.5625 -14.289062 -48.894531 -11.0625 -51.71875 C -7.820312 -54.53125 -4.195312 -56.359375 -0.1875 -57.203125 C 3.8125 -58.054688 7.753906 -57.816406 11.640625 -56.484375 C 15.523438 -55.148438 18.929688 -52.796875 21.859375 -49.421875 C 24.785156 -46.066406 26.640625 -42.359375 27.421875 -38.296875 C 28.203125 -34.234375 27.90625 -30.28125 26.53125 -26.4375 C 25.15625 -22.601562 22.847656 -19.28125 19.609375 -16.46875 Z M 12.953125 -24.125 C 15.703125 -26.507812 17.101562 -29.332031 17.15625 -32.59375 C 17.21875 -35.863281 15.941406 -39 13.328125 -42 C 10.679688 -45.039062 7.742188 -46.75 4.515625 -47.125 C 1.285156 -47.507812 -1.703125 -46.507812 -4.453125 -44.125 C -7.234375 -41.707031 -8.664062 -38.878906 -8.75 -35.640625 C -8.832031 -32.410156 -7.535156 -29.253906 -4.859375 -26.171875 C -2.210938 -23.140625 0.71875 -21.4375 3.9375 -21.0625 C 7.164062 -20.6875 10.171875 -21.707031 12.953125 -24.125 Z M 12.953125 -24.125 "/></g></g></g><g fill="#ff3131" fill-opacity="1"><g transform="translate(217.778513, 423.929239)"><g><path d="M 20.59375 -17.921875 L 2.140625 -24.671875 L 0.125 -22.921875 L 11.421875 -9.9375 L 3.046875 -2.640625 L -26.90625 -37.0625 L -12.84375 -49.3125 C -10.125 -51.675781 -7.394531 -53.210938 -4.65625 -53.921875 C -1.925781 -54.640625 0.628906 -54.582031 3.015625 -53.75 C 5.398438 -52.925781 7.472656 -51.503906 9.234375 -49.484375 C 11.222656 -47.191406 12.351562 -44.582031 12.625 -41.65625 C 12.90625 -38.738281 12.113281 -35.804688 10.25 -32.859375 L 30.0625 -26.15625 Z M -5.046875 -28.875 L 0.15625 -33.40625 C 1.695312 -34.738281 2.519531 -36.113281 2.625 -37.53125 C 2.738281 -38.945312 2.203125 -40.34375 1.015625 -41.71875 C -0.117188 -43.019531 -1.394531 -43.710938 -2.8125 -43.796875 C -4.238281 -43.890625 -5.722656 -43.269531 -7.265625 -41.9375 L -12.46875 -37.40625 Z M -5.046875 -28.875 "/></g></g></g><g fill="#ff3131" fill-opacity="1"><g transform="translate(249.745482, 396.112888)"><g><path d="M -2.140625 -58.625 L 3.703125 -51.90625 L -5.421875 -43.953125 L 18.6875 -16.25 L 10.296875 -8.96875 L -13.8125 -36.671875 L -22.9375 -28.734375 L -28.78125 -35.453125 Z M -2.140625 -58.625 "/></g></g></g><g fill="#ffde59" fill-opacity="1"><g transform="translate(501.68474, 446.836728)"><g><path d="M 8.515625 -38.4375 C 10.878906 -39.75 13.34375 -40.15625 15.90625 -39.65625 C 18.46875 -39.15625 20.613281 -37.910156 22.34375 -35.921875 C 24.851562 -33.035156 25.832031 -29.875 25.28125 -26.4375 C 24.738281 -23.007812 22.671875 -19.726562 19.078125 -16.59375 L 3.046875 -2.640625 L -26.90625 -37.0625 L -11.421875 -50.546875 C -7.921875 -53.597656 -4.484375 -55.179688 -1.109375 -55.296875 C 2.253906 -55.421875 5.132812 -54.109375 7.53125 -51.359375 C 9.289062 -49.328125 10.222656 -47.179688 10.328125 -44.921875 C 10.429688 -42.660156 9.828125 -40.5 8.515625 -38.4375 Z M -6.421875 -30.4375 L -0.921875 -35.21875 C 0.453125 -36.414062 1.242188 -37.632812 1.453125 -38.875 C 1.660156 -40.125 1.253906 -41.335938 0.234375 -42.515625 C -0.785156 -43.691406 -1.929688 -44.269531 -3.203125 -44.25 C -4.484375 -44.226562 -5.8125 -43.617188 -7.1875 -42.421875 L -12.6875 -37.640625 Z M 11.703125 -22.078125 C 13.109375 -23.304688 13.921875 -24.570312 14.140625 -25.875 C 14.359375 -27.175781 13.941406 -28.429688 12.890625 -29.640625 C 11.835938 -30.859375 10.609375 -31.460938 9.203125 -31.453125 C 7.804688 -31.441406 6.40625 -30.828125 5 -29.609375 L -1.078125 -24.3125 L 5.53125 -16.703125 Z M 11.703125 -22.078125 "/></g></g></g><g fill="#ffde59" fill-opacity="1"><g transform="translate(533.994907, 418.721741)"><g><path d="M -18.671875 -44.234375 L -0.75 -23.640625 C 1.039062 -21.578125 2.925781 -20.429688 4.90625 -20.203125 C 6.894531 -19.984375 8.863281 -20.722656 10.8125 -22.421875 C 12.78125 -24.128906 13.800781 -25.992188 13.875 -28.015625 C 13.957031 -30.035156 13.101562 -32.078125 11.3125 -34.140625 L -6.609375 -54.734375 L 1.78125 -62.03125 L 19.65625 -41.484375 C 22.332031 -38.410156 23.941406 -35.242188 24.484375 -31.984375 C 25.023438 -28.722656 24.660156 -25.59375 23.390625 -22.59375 C 22.117188 -19.59375 20.125 -16.910156 17.40625 -14.546875 C 14.695312 -12.191406 11.8125 -10.613281 8.75 -9.8125 C 5.6875 -9.007812 2.601562 -9.132812 -0.5 -10.1875 C -3.613281 -11.25 -6.507812 -13.316406 -9.1875 -16.390625 L -27.0625 -36.9375 Z M -18.671875 -44.234375 "/></g></g></g><g fill="#ffde59" fill-opacity="1"><g transform="translate(568.560411, 388.644252)"><g><path d="M -18.53125 -44.359375 L 11.421875 -9.9375 L 3.046875 -2.640625 L -26.90625 -37.0625 Z M -18.53125 -44.359375 "/></g></g></g><g fill="#ffde59" fill-opacity="1"><g transform="translate(583.023989, 376.058638)"><g><path d="M 5.796875 -16.40625 L 16.78125 -25.96875 L 22.40625 -19.5 L 3.046875 -2.640625 L -26.90625 -37.0625 L -18.53125 -44.359375 Z M 5.796875 -16.40625 "/></g></g></g><g fill="#ffde59" fill-opacity="1"><g transform="translate(606.410862, 355.708337)"><g><path d="M -14.015625 -48.28125 C -10.390625 -51.445312 -6.59375 -53.488281 -2.625 -54.40625 C 1.332031 -55.332031 5.1875 -55.140625 8.9375 -53.828125 C 12.6875 -52.523438 16.046875 -50.171875 19.015625 -46.765625 C 21.941406 -43.410156 23.796875 -39.773438 24.578125 -35.859375 C 25.367188 -31.953125 25.023438 -28.09375 23.546875 -24.28125 C 22.066406 -20.46875 19.53125 -16.992188 15.9375 -13.859375 L 3.046875 -2.640625 L -26.90625 -37.0625 Z M 9.078125 -20.65625 C 12.253906 -23.425781 13.96875 -26.441406 14.21875 -29.703125 C 14.476562 -32.960938 13.234375 -36.175781 10.484375 -39.34375 C 7.710938 -42.519531 4.675781 -44.222656 1.375 -44.453125 C -1.914062 -44.691406 -5.148438 -43.425781 -8.328125 -40.65625 L -12.296875 -37.203125 L 5.109375 -17.203125 Z M 9.078125 -20.65625 "/></g></g></g><g fill="#ffde59" fill-opacity="1"><g transform="translate(642.055011, 324.692255)"><g><path d="M -12.6875 -37.640625 L -6.625 -30.6875 L 4.609375 -40.46875 L 10.234375 -34 L -1 -24.21875 L 5.578125 -16.65625 L 18.28125 -27.71875 L 24.125 -21 L 3.046875 -2.640625 L -26.90625 -37.0625 L -5.828125 -55.421875 L 0.015625 -48.703125 Z M -12.6875 -37.640625 "/></g></g></g><g fill="#ffde59" fill-opacity="1"><g transform="translate(668.579745, 301.611516)"><g><path d="M 20.59375 -17.921875 L 2.140625 -24.671875 L 0.125 -22.921875 L 11.421875 -9.9375 L 3.046875 -2.640625 L -26.90625 -37.0625 L -12.84375 -49.3125 C -10.125 -51.675781 -7.394531 -53.210938 -4.65625 -53.921875 C -1.925781 -54.640625 0.628906 -54.582031 3.015625 -53.75 C 5.398438 -52.925781 7.472656 -51.503906 9.234375 -49.484375 C 11.222656 -47.191406 12.351562 -44.582031 12.625 -41.65625 C 12.90625 -38.738281 12.113281 -35.804688 10.25 -32.859375 L 30.0625 -26.15625 Z M -5.046875 -28.875 L 0.15625 -33.40625 C 1.695312 -34.738281 2.519531 -36.113281 2.625 -37.53125 C 2.738281 -38.945312 2.203125 -40.34375 1.015625 -41.71875 C -0.117188 -43.019531 -1.394531 -43.710938 -2.8125 -43.796875 C -4.238281 -43.890625 -5.722656 -43.269531 -7.265625 -41.9375 L -12.46875 -37.40625 Z M -5.046875 -28.875 "/></g></g></g></svg>